<svg xmlns="http://www.w3.org/2000/svg" width="32" height="32" viewBox="0 0 32 32">
  <path id="Path_222" data-name="Path 222" d="M19.395,112l10.256-10.256,2.115-2.115a.8.8,0,0,0,0-1.131L29.5,96.235a.8.8,0,0,0-1.131,0L16,108.606,3.629,96.234a.8.8,0,0,0-1.131,0L.234,98.5a.8.8,0,0,0,0,1.131L12.606,112,.234,124.372a.8.8,0,0,0,0,1.131L2.5,127.766a.8.8,0,0,0,1.131,0L16,115.395l10.256,10.256,2.115,2.115a.8.8,0,0,0,1.131,0l2.263-2.263a.8.8,0,0,0,0-1.131Z" transform="translate(0 -96)" fill="#ffffff"/>
</svg>
