<svg id="logo-vertical" xmlns="http://www.w3.org/2000/svg" xmlns:xlink="http://www.w3.org/1999/xlink" width="94.093" height="372.836" viewBox="0 0 94.093 372.836">
  <defs>
    <clipPath id="clip-path">
      <rect id="Rectangle_83" data-name="Rectangle 83" width="94.093" height="372.836" fill="none"/>
    </clipPath>
  </defs>
  <g id="Group_1643" data-name="Group 1643">
    <text id="all_about" data-name="all about" transform="translate(55.987 118.805) rotate(90)" fill="#251e31" font-size="32.505" font-family="Poppins-Bold, Poppins" font-weight="700"><tspan x="0" y="0">all about</tspan></text>
    <g id="Group_1642" data-name="Group 1642">
      <g id="Group_1641" data-name="Group 1641" clip-path="url(#clip-path)">
        <text id="the_" data-name="the " transform="translate(22.204 201.987) rotate(90)" fill="#251e31" font-size="36.64" font-family="Poppins-Bold, Poppins" font-weight="700"><tspan x="0" y="0">the </tspan></text>
        <text id="mom" transform="translate(22.203 271.896) rotate(90)" fill="#f084f4" font-size="36.64" font-family="Poppins-Bold, Poppins" font-weight="700"><tspan x="0" y="0">mom</tspan></text>
        <path id="Path_223" data-name="Path 223" d="M53.116,0A40.978,40.978,0,0,0,12.138,40.977V90.37a9.231,9.231,0,0,0,9.23,9.23H84.863a9.231,9.231,0,0,0,9.23-9.23V40.977A40.978,40.978,0,0,0,53.116,0M79.652,65.288a26.538,26.538,0,0,1-52.5,5.493c5.509-1.756,12.138-8.714,19.043-24.066C54.627,27.953,63.413,24.488,70.287,25.77h0a13.646,13.646,0,0,1,9.36,12.945Z" fill="#251e31"/>
        <path id="Path_224" data-name="Path 224" d="M51.417,76.206a6.839,6.839,0,0,1-4.9-4.753l-3.762,1.074a10.736,10.736,0,0,0,20.736-.313L59.7,71.26a6.83,6.83,0,0,1-8.285,4.946" fill="#251e31"/>
        <path id="Path_225" data-name="Path 225" d="M56.018,64.4h1.59V60.493h-1.59a2.915,2.915,0,0,1-2.986-2.829V49.32H49.123v8.344a6.827,6.827,0,0,0,6.9,6.738" fill="#251e31"/>
        <path id="Path_226" data-name="Path 226" d="M70.1,43.755a7.312,7.312,0,0,0-9.552,3.94l3.611,1.5a3.4,3.4,0,0,1,6.509.87l3.877-.511a7.336,7.336,0,0,0-4.445-5.8" fill="#251e31"/>
      </g>
    </g>
  </g>
</svg>
