<svg id="Group_1450" data-name="Group 1450" xmlns="http://www.w3.org/2000/svg" xmlns:xlink="http://www.w3.org/1999/xlink" width="89.173" height="64" viewBox="0 0 89.173 64">
  <defs>
    <clipPath id="clip-path">
      <rect id="Rectangle_44" data-name="Rectangle 44" width="89.173" height="64" fill="#f0d8e5"/>
    </clipPath>
  </defs>
  <g id="Group_1449" data-name="Group 1449" transform="translate(0 0)" clip-path="url(#clip-path)">
    <path id="Path_206" data-name="Path 206" d="M22.04,63.064a19.826,19.826,0,0,0,14.506-5.278,18.872,18.872,0,0,0,5.96-14.032q.146-7.877-4.425-12.837a16.018,16.018,0,0,0-12.032-5.089,29.324,29.324,0,0,0-3.422.248,3.189,3.189,0,0,1-.524.091,17.252,17.252,0,0,1,6.752-9.05q4.672-3.07,12.765-3.753L41.869,0Q23.914,1.535,12.1,12.562T.007,38.5Q-.194,49.282,5.9,56.08T22.04,63.064" transform="translate(46.661 0.931)" fill="#f0d8e5"/>
    <path id="Path_207" data-name="Path 207" d="M84.092,57.645q6.194,6.795,16.244,6.987a19.945,19.945,0,0,0,14.608-5.276,18.877,18.877,0,0,0,5.965-14.032q.146-7.878-4.48-12.837a16.3,16.3,0,0,0-12.183-5.093,27.117,27.117,0,0,0-3.427.248,2.888,2.888,0,0,1-.624.09,17.766,17.766,0,0,1,6.853-9.049q4.672-3.07,12.769-3.753l.249-13.364Q102.1,3.1,90.239,14.126T78.1,40.065q-.2,10.78,6,17.58" transform="translate(-78.091 -1.565)" fill="#f0d8e5"/>
  </g>
</svg>
