<svg xmlns="http://www.w3.org/2000/svg" width="45.714" height="40" viewBox="0 0 45.714 40">
  <g id="sweepstake" transform="translate(0 -32)">
    <path id="Path_227" data-name="Path 227" d="M20,174.286v14.286H5.714a2.857,2.857,0,0,1-2.857-2.857V174.286ZM20,160H2.857A2.857,2.857,0,0,0,0,162.857V170a1.429,1.429,0,0,0,1.429,1.429H20Zm22.857,0H25.714v11.429H44.286A1.429,1.429,0,0,0,45.714,170v-7.143A2.857,2.857,0,0,0,42.857,160ZM25.714,188.571H40a2.857,2.857,0,0,0,2.857-2.857V174.286H25.714Z" transform="translate(0 -116.571)" fill="#f084f4"/>
    <path id="Path_228" data-name="Path 228" d="M78.286,72H84V57.714H78.286Zm12.1-40c-3.734,0-6.148,1.9-9.245,6.1-3.1-4.2-5.511-6.1-9.245-6.1A7.89,7.89,0,0,0,64,39.857a7.647,7.647,0,0,0,.906,3.571h6.983a3.571,3.571,0,0,1,0-7.143c1.786,0,3.105.295,7.728,7.143H78.286V54.857H84V43.429H82.661c4.613-6.83,5.893-7.143,7.728-7.143a3.571,3.571,0,0,1,0,7.143H97.38a7.756,7.756,0,0,0,.905-3.571A7.89,7.89,0,0,0,90.387,32Z" transform="translate(-58.286)" fill="#fff"/>
  </g>
</svg>
